<svg xmlns="http://www.w3.org/2000/svg" viewBox="0 0 24 24" fill="currentColor">
  <path d="M12 0A12 12 0 0 0 0 12a12 12 0 0 0 12 12 12 12 0 0 0 12-12A12 12 0 0 0 12 0zm5.01 4.744c.688 0 1.25.561 1.25 1.249a1.25 1.25 0 0 1-2.498.056l-2.597-.547-.8 3.747c1.824.07 3.48.632 4.674 1.488.308-.309.73-.491 1.207-.491.968 0 1.754.786 1.754 1.754 0 .716-.435 1.333-1.01 1.614a3.111 3.111 0 0 1 .042.52c0 2.694-3.13 4.87-7.004 4.87-3.874 0-7.004-2.176-7.004-4.87 0-.183.015-.366.043-.534A1.748 1.748 0 0 1 4.028 12c0-.968.786-1.754 1.754-1.754.463 0 .898.196 1.207.49 1.207-.883 2.878-1.43 4.744-1.53l-.823-3.808c-.038-.196.166-.335.35-.287l2.588.547a1.25 1.25 0 0 1 1.25-1.25c.687 0 1.25.562 1.25 1.25s-.563 1.25-1.25 1.25zm2.204 5.41c.065 0 .13.009.195.027a.75.75 0 1 0-.195-.027zm-4.413 0c.066 0 .13.009.196.027a.75.75 0 1 0-.196-.027zm7.221 1.27c0 .746-.607 1.354-1.354 1.354-.748 0-1.355-.608-1.355-1.354 0-.747.607-1.354 1.355-1.354.747 0 1.354.607 1.354 1.354zm-4.604 0c0 .746-.607 1.354-1.354 1.354-.747 0-1.354-.608-1.354-1.354 0-.747.607-1.354 1.354-1.354.747 0 1.354.607 1.354 1.354zm3.738 4.565a.75.75 0 1 0-1.06-1.061l-1.06 1.06-1.06-1.06a.75.75 0 1 0-1.06 1.06l1.06 1.06-1.06 1.061a.75.75 0 1 0 1.06 1.06l1.06-1.06 1.06 1.06a.75.75 0 1 0 1.06-1.06l-1.06-1.06 1.06-1.061z"/>
</svg>